<svg xmlns="http://www.w3.org/2000/svg" xmlns:xlink="http://www.w3.org/1999/xlink" version="1.1" x="0px" y="0px" viewBox="0 0 100 125" style="enable-background:new 0 0 100 100;" xml:space="preserve"><path d="M45.029,52.694H7.278C6.022,52.694,5,53.716,5,54.972v37.75C5,93.978,6.022,95,7.278,95h37.751  c1.256,0,2.277-1.022,2.277-2.277v-37.75C47.306,53.716,46.284,52.694,45.029,52.694z M44.216,91.91H8.09V55.784h36.126V91.91z   M92.723,52.694H54.972c-1.256,0-2.277,1.022-2.277,2.277v37.75c0,1.256,1.022,2.277,2.277,2.277h37.751  C93.978,95,95,93.978,95,92.722v-37.75C95,53.716,93.978,52.694,92.723,52.694z M91.91,91.91H55.785V55.784H91.91V91.91z M92.723,5  H54.972c-1.256,0-2.277,1.022-2.277,2.277v37.75c0,1.256,1.022,2.277,2.277,2.277h37.751c1.255,0,2.277-1.022,2.277-2.277V7.277  C95,6.022,93.978,5,92.723,5z M91.91,44.215H55.785V8.09H91.91V44.215z M45.029,5H7.278C6.022,5,5,6.022,5,7.277v37.75  c0,1.256,1.022,2.277,2.277,2.277h37.751c1.256,0,2.277-1.022,2.277-2.277V7.277C47.306,6.022,46.284,5,45.029,5z M44.216,44.215  H8.09V8.09h36.126V44.215z M65.506,26.153c0-0.853,0.692-1.545,1.545-1.545h13.592c0.853,0,1.545,0.692,1.545,1.545  c0,0.853-0.692,1.545-1.545,1.545H67.051C66.198,27.698,65.506,27.006,65.506,26.153z M17.813,26.153  c0-0.853,0.692-1.545,1.545-1.545h5.25v-5.251c0-0.853,0.692-1.545,1.545-1.545c0.853,0,1.545,0.692,1.545,1.545v5.251h5.251  c0.853,0,1.545,0.692,1.545,1.545c0,0.853-0.692,1.545-1.545,1.545h-5.251v5.251c0,0.853-0.692,1.545-1.545,1.545  c-0.853,0-1.545-0.692-1.545-1.545v-5.251h-5.25C18.505,27.698,17.813,27.007,17.813,26.153z M19.294,78.521l4.674-4.674  l-4.674-4.674c-0.604-0.603-0.604-1.582,0-2.185c0.604-0.604,1.581-0.604,2.185,0l4.674,4.674l4.674-4.674  c0.604-0.604,1.581-0.604,2.185,0c0.604,0.603,0.604,1.582,0,2.185l-4.674,4.674l4.674,4.674c0.604,0.603,0.604,1.582,0,2.185  c-0.302,0.302-0.697,0.453-1.092,0.453c-0.395,0-0.791-0.151-1.092-0.453l-4.674-4.674l-4.674,4.674  c-0.302,0.302-0.697,0.453-1.092,0.453s-0.791-0.151-1.092-0.453C18.691,80.103,18.691,79.124,19.294,78.521z M65.506,69.739  c0-0.853,0.692-1.545,1.545-1.545h13.592c0.853,0,1.545,0.692,1.545,1.545s-0.692,1.545-1.545,1.545H67.051  C66.198,71.284,65.506,70.593,65.506,69.739z M65.506,77.954c0-0.853,0.692-1.545,1.545-1.545h13.592  c0.853,0,1.545,0.692,1.545,1.545s-0.692,1.545-1.545,1.545H67.051C66.198,79.499,65.506,78.808,65.506,77.954z"/><text x="0" y="115" fill="#000000" font-size="5px" font-weight="bold" font-family="'Helvetica Neue', Helvetica, Arial-Unicode, Arial, Sans-serif">Created by Sunisih</text><text x="0" y="120" fill="#000000" font-size="5px" font-weight="bold" font-family="'Helvetica Neue', Helvetica, Arial-Unicode, Arial, Sans-serif">from the Noun Project</text></svg>